<svg xmlns="http://www.w3.org/2000/svg" viewBox="0 0 640 400">
  <defs>
    <linearGradient id="bg-project-stringrecycling" x1="0" y1="0" x2="1" y2="1">
      <stop offset="0%" stop-color="#0d0f16"/>
      <stop offset="100%" stop-color="#161a24"/>
    </linearGradient>
    <linearGradient id="ic-project-stringrecycling" x1="0" y1="0" x2="1" y2="1">
      <stop offset="0%" stop-color="#35d0ff"/>
      <stop offset="100%" stop-color="#4ade80"/>
    </linearGradient>
  </defs>
  <rect width="640" height="400" fill="url(#bg-project-stringrecycling)"/>
  <rect x="1" y="1" width="638" height="398" fill="none" stroke="#ffffff" stroke-opacity="0.06"/>
  <g stroke="url(#ic-project-stringrecycling)" stroke-width="1.5" fill="none"><line x1="260" y1="100" x2="260" y2="200"/><line x1="280" y1="100" x2="280" y2="200"/><line x1="300" y1="100" x2="300" y2="200"/><line x1="320" y1="100" x2="320" y2="200"/><line x1="340" y1="100" x2="340" y2="200"/><line x1="360" y1="100" x2="360" y2="200"/><line x1="380" y1="100" x2="380" y2="200"/><line x1="250" y1="115" x2="390" y2="115"/><line x1="250" y1="135" x2="390" y2="135"/><line x1="250" y1="155" x2="390" y2="155"/><line x1="250" y1="175" x2="390" y2="175"/><line x1="250" y1="195" x2="390" y2="195"/></g>
  <text x="320" y="360" font-family="Arial, sans-serif" font-size="12" letter-spacing="2" text-anchor="middle" fill="#6b7280">IMAGE PLACEHOLDER — REUTILIZACION DE CUERDAS</text>
</svg>
