<svg xmlns="http://www.w3.org/2000/svg" viewBox="0 0 640 400">
  <defs>
    <linearGradient id="bg-project-torneo" x1="0" y1="0" x2="1" y2="1">
      <stop offset="0%" stop-color="#0d0f16"/>
      <stop offset="100%" stop-color="#161a24"/>
    </linearGradient>
    <linearGradient id="ic-project-torneo" x1="0" y1="0" x2="1" y2="1">
      <stop offset="0%" stop-color="#35d0ff"/>
      <stop offset="100%" stop-color="#d4ff3f"/>
    </linearGradient>
  </defs>
  <rect width="640" height="400" fill="url(#bg-project-torneo)"/>
  <rect x="1" y="1" width="638" height="398" fill="none" stroke="#ffffff" stroke-opacity="0.06"/>
  <g stroke="url(#ic-project-torneo)" stroke-width="2" fill="none"><line x1="220" y1="110" x2="270" y2="110"/><line x1="220" y1="150" x2="270" y2="150"/><line x1="270" y1="110" x2="270" y2="130"/><line x1="270" y1="150" x2="270" y2="130"/><line x1="270" y1="130" x2="320" y2="130"/><line x1="220" y1="190" x2="270" y2="190"/><line x1="220" y1="230" x2="270" y2="230"/><line x1="270" y1="190" x2="270" y2="210"/><line x1="270" y1="230" x2="270" y2="210"/><line x1="270" y1="210" x2="320" y2="210"/><line x1="320" y1="130" x2="320" y2="170"/><line x1="320" y1="210" x2="320" y2="170"/><line x1="320" y1="170" x2="400" y2="170"/></g>
  <text x="320" y="360" font-family="Arial, sans-serif" font-size="12" letter-spacing="2" text-anchor="middle" fill="#6b7280">IMAGE PLACEHOLDER — TORNEO ABIERTO DE ARROYITO</text>
</svg>
